<svg width="553" height="151" viewBox="0 0 553 151" fill="none" xmlns="http://www.w3.org/2000/svg" aria-label="Ridge"><path d="M231.927 0H181.57V150.737H231.927C256.937 150.737 273.782 139.553 280.629 118.388C283.217 110.441 284.262 97.8633 284.262 74.9839C284.262 52.1042 283.249 40.3759 280.629 32.3327C273.782 11.1995 256.937 0 231.927 0ZM255.105 109.303C251.103 121.48 242.118 126.911 226.013 126.911H208.027V23.841H226.013C242.134 23.841 251.119 29.2885 255.137 41.4975C256.825 46.0798 257.629 56.7343 257.629 75C257.629 93.2652 256.809 104.737 255.121 109.303H255.105Z" fill="currentColor"/><path d="M302.399 72.4204C302.399 96.1652 303.556 110.777 306.031 118.404C312.895 139.569 329.739 150.753 354.733 150.753H405.092V61.8936H348.095L359.845 85.7347H378.65V126.928H360.664C344.543 126.928 335.558 121.48 331.54 109.271C329.965 105.009 329.048 91.5668 329.048 72.4364C329.048 52.3603 330.045 45.5351 331.556 41.4493C335.558 29.2885 344.527 23.857 360.648 23.857H405.073V0H354.717C329.707 0 312.863 11.1835 306.015 32.3488C303.605 39.7669 302.383 48.0023 302.383 72.4204H302.399Z" fill="currentColor"/><path d="M523.483 23.841V0H431.578V150.753H523.483V126.911H458.016V85.7187H504.741L516.492 61.8775H458.016V23.841H523.483Z" fill="currentColor"/><path d="M107.722 150.753L75.8009 89.3557L76.3957 89.1473C93.7868 83.107 104.877 68.0142 105.36 49.7811L105.392 48.4832V43.5323C105.392 18.3134 85.7825 0 58.7633 0H0V150.753H26.4564V23.841H27.2922H57.9277C70.8346 23.841 79.1603 31.5797 79.1603 43.5323V48.4993C79.1603 60.4677 70.8185 68.1905 57.9277 68.1905H56.5613L46.6284 88.3144L77.5692 150.737H107.738L107.722 150.753Z" fill="currentColor"/><path d="M154.784 39.4626V0H128.328V150.753H154.784V68.1905H140.592L154.784 39.4626Z" fill="currentColor"/></svg>