<svg width="279" height="174" viewBox="0 0 279 174" fill="none" xmlns="http://www.w3.org/2000/svg">
<g filter="url(#filter0_f_2035_988)">
<path d="M65.2547 118.022C66.2147 89.8626 109.791 49.4731 152.288 71.4572" stroke="url(#paint0_linear_2035_988)" stroke-opacity="0.15" stroke-width="50"/>
</g>
<g filter="url(#filter1_f_2035_988)">
<path d="M213.748 62.4413C210.607 88.5641 163.81 121.406 122.919 96.2723" stroke="url(#paint1_linear_2035_988)" stroke-opacity="0.15" stroke-width="50"/>
</g>
<g filter="url(#filter2_f_2035_988)">
<path d="M145.669 76.6741C143.342 96.0249 108.676 120.353 78.3861 101.735" stroke="#FDDB49" stroke-opacity="0.2" stroke-width="50"/>
</g>
<path d="M139.667 49C143.4 49 147.017 49.4917 150.458 50.4125L141.6 59.2667C140.928 59.9414 140.335 60.6907 139.833 61.5H139.667C133.898 61.5 128.259 63.2106 123.463 66.4155C118.666 69.6203 114.928 74.1756 112.72 79.5051C110.513 84.8346 109.935 90.699 111.06 96.3568C112.186 102.015 114.964 107.212 119.043 111.291C123.122 115.37 128.319 118.148 133.977 119.273C139.634 120.398 145.499 119.821 150.828 117.613C156.158 115.406 160.713 111.667 163.918 106.871C167.123 102.074 168.833 96.4353 168.833 90.6667V90.5C169.639 90 170.382 89.4097 171.063 88.7292L179.921 79.875C180.842 83.3167 181.333 86.9333 181.333 90.6667C181.333 113.679 162.679 132.333 139.667 132.333C116.654 132.333 98 113.679 98 90.6667C98 67.6542 116.654 49 139.667 49ZM137.942 69.9042C137.942 73.45 137.767 77.0458 137.958 80.5875L135.708 82.8375C134.934 83.6115 134.32 84.5303 133.902 85.5416C133.483 86.5528 133.267 87.6367 133.267 88.7313C133.267 89.8258 133.483 90.9097 133.902 91.9209C134.32 92.9322 134.934 93.851 135.708 94.625C136.482 95.399 137.401 96.0129 138.412 96.4318C139.424 96.8507 140.508 97.0663 141.602 97.0663C142.697 97.0663 143.781 96.8507 144.792 96.4318C145.803 96.0129 146.722 95.399 147.496 94.625L149.746 92.375C153.288 92.5667 156.879 92.3917 160.429 92.3917C160.1 96.3514 158.645 100.134 156.237 103.295C153.828 106.455 150.566 108.86 146.835 110.227C143.104 111.594 139.06 111.866 135.18 111.01C131.3 110.154 127.746 108.207 124.936 105.397C122.126 102.588 120.179 99.0332 119.323 95.153C118.467 91.2729 118.739 87.2289 120.106 83.4981C121.473 79.7672 123.879 76.5052 127.039 74.0966C130.199 71.688 133.982 70.2333 137.942 69.9042ZM166.767 49.5292C167.527 49.8445 168.177 50.3781 168.635 51.0625C169.092 51.747 169.337 52.5517 169.338 53.375V61H176.958C177.782 61.0002 178.588 61.2446 179.273 61.7025C179.958 62.1603 180.492 62.811 180.807 63.5723C181.122 64.3335 181.205 65.1712 181.044 65.9793C180.883 66.7874 180.487 67.5298 179.904 68.1125L165.167 82.8333C164.385 83.6148 163.326 84.0539 162.221 84.0542H152.167L144.55 91.675C143.768 92.4568 142.708 92.8961 141.602 92.8961C140.496 92.8961 139.436 92.4568 138.654 91.675C137.872 90.8932 137.433 89.8328 137.433 88.7271C137.433 87.6214 137.872 86.561 138.654 85.7792L146.275 78.1667V68.1083C146.275 67.5605 146.382 67.018 146.592 66.5118C146.801 66.0056 147.108 65.5457 147.496 65.1583L162.225 50.4292C162.808 49.8461 163.55 49.449 164.359 49.288C165.167 49.1271 166.005 49.2096 166.767 49.525" fill="url(#paint2_linear_2035_988)"/>
<defs>
<filter id="filter0_f_2035_988" x="0.269043" y="0.138672" width="203.506" height="158.736" filterUnits="userSpaceOnUse" color-interpolation-filters="sRGB">
<feFlood flood-opacity="0" result="BackgroundImageFix"/>
<feBlend mode="normal" in="SourceGraphic" in2="BackgroundImageFix" result="shape"/>
<feGaussianBlur stdDeviation="20" result="effect1_foregroundBlur_2035_988"/>
</filter>
<filter id="filter1_f_2035_988" x="69.8281" y="19.4551" width="208.741" height="150.808" filterUnits="userSpaceOnUse" color-interpolation-filters="sRGB">
<feFlood flood-opacity="0" result="BackgroundImageFix"/>
<feBlend mode="normal" in="SourceGraphic" in2="BackgroundImageFix" result="shape"/>
<feGaussianBlur stdDeviation="20" result="effect1_foregroundBlur_2035_988"/>
</filter>
<filter id="filter2_f_2035_988" x="25.2949" y="32.8628" width="185.195" height="140.532" filterUnits="userSpaceOnUse" color-interpolation-filters="sRGB">
<feFlood flood-opacity="0" result="BackgroundImageFix"/>
<feBlend mode="normal" in="SourceGraphic" in2="BackgroundImageFix" result="shape"/>
<feGaussianBlur stdDeviation="20" result="effect1_foregroundBlur_2035_988"/>
</filter>
<linearGradient id="paint0_linear_2035_988" x1="70.1893" y1="86.8918" x2="147.556" y2="99.806" gradientUnits="userSpaceOnUse">
<stop stop-color="#9320EB"/>
<stop offset="1" stop-color="#9320EB"/>
</linearGradient>
<linearGradient id="paint1_linear_2035_988" x1="206.394" y1="90.8954" x2="129.855" y2="70.387" gradientUnits="userSpaceOnUse">
<stop stop-color="#4956FF"/>
<stop offset="1" stop-color="#9320EB"/>
</linearGradient>
<linearGradient id="paint2_linear_2035_988" x1="139.667" y1="49" x2="139.667" y2="132.333" gradientUnits="userSpaceOnUse">
<stop stop-color="#8E20E2"/>
<stop offset="1" stop-color="#492592"/>
</linearGradient>
</defs>
</svg>
