<svg width="279" height="174" viewBox="0 0 279 174" fill="none" xmlns="http://www.w3.org/2000/svg">
<g filter="url(#filter0_f_2035_991)">
<path d="M65.2547 118.022C66.2147 89.8626 109.791 49.4731 152.288 71.4572" stroke="url(#paint0_linear_2035_991)" stroke-opacity="0.15" stroke-width="50"/>
</g>
<g filter="url(#filter1_f_2035_991)">
<path d="M213.748 62.4413C210.607 88.5641 163.81 121.406 122.919 96.2723" stroke="url(#paint1_linear_2035_991)" stroke-opacity="0.15" stroke-width="50"/>
</g>
<g filter="url(#filter2_f_2035_991)">
<path d="M145.669 76.6741C143.342 96.0249 108.676 120.353 78.3861 101.735" stroke="#FDDB49" stroke-opacity="0.2" stroke-width="50"/>
</g>
<path d="M163.042 73.3752C162.75 73.3335 162.458 73.3335 162.167 73.3752C155.708 73.1668 150.583 67.8752 150.583 61.3752C150.583 54.7502 155.958 49.3335 162.625 49.3335C169.25 49.3335 174.667 54.7085 174.667 61.3752C174.625 67.8752 169.5 73.1668 163.042 73.3752Z" fill="url(#paint2_linear_2035_991)"/>
<path d="M176.625 102.25C171.959 105.375 165.417 106.541 159.375 105.75C160.959 102.333 161.792 98.5414 161.834 94.5414C161.834 90.3747 160.917 86.4164 159.167 82.9581C165.334 82.1247 171.875 83.2914 176.584 86.4164C183.167 90.7497 183.167 97.8747 176.625 102.25Z" fill="url(#paint3_linear_2035_991)"/>
<path d="M116.834 73.3752C117.125 73.3335 117.417 73.3335 117.709 73.3752C124.167 73.1668 129.292 67.8752 129.292 61.3752C129.292 54.7085 123.917 49.3335 117.25 49.3335C110.625 49.3335 105.25 54.7085 105.25 61.3752C105.25 67.8752 110.375 73.1668 116.834 73.3752Z" fill="url(#paint4_linear_2035_991)"/>
<path d="M117.292 94.5422C117.292 98.5838 118.167 102.417 119.75 105.876C113.875 106.501 107.75 105.251 103.25 102.292C96.6672 97.9172 96.6672 90.7922 103.25 86.4172C107.709 83.4172 114 82.2088 119.917 82.8755C118.209 86.3755 117.292 90.3338 117.292 94.5422Z" fill="url(#paint5_linear_2035_991)"/>
<path d="M140.499 107.125C140.166 107.083 139.791 107.083 139.416 107.125C131.749 106.875 125.624 100.583 125.624 92.8333C125.666 84.9167 132.041 78.5 139.999 78.5C147.916 78.5 154.332 84.9167 154.332 92.8333C154.291 100.583 148.207 106.875 140.499 107.125Z" fill="url(#paint6_linear_2035_991)"/>
<path d="M126.958 115.75C120.666 119.959 120.666 126.875 126.958 131.042C134.124 135.834 145.874 135.834 153.041 131.042C159.333 126.834 159.333 119.917 153.041 115.75C145.916 110.959 134.166 110.959 126.958 115.75Z" fill="url(#paint7_linear_2035_991)"/>
<defs>
<filter id="filter0_f_2035_991" x="0.269043" y="0.138672" width="203.506" height="158.736" filterUnits="userSpaceOnUse" color-interpolation-filters="sRGB">
<feFlood flood-opacity="0" result="BackgroundImageFix"/>
<feBlend mode="normal" in="SourceGraphic" in2="BackgroundImageFix" result="shape"/>
<feGaussianBlur stdDeviation="20" result="effect1_foregroundBlur_2035_991"/>
</filter>
<filter id="filter1_f_2035_991" x="69.8281" y="19.4551" width="208.741" height="150.808" filterUnits="userSpaceOnUse" color-interpolation-filters="sRGB">
<feFlood flood-opacity="0" result="BackgroundImageFix"/>
<feBlend mode="normal" in="SourceGraphic" in2="BackgroundImageFix" result="shape"/>
<feGaussianBlur stdDeviation="20" result="effect1_foregroundBlur_2035_991"/>
</filter>
<filter id="filter2_f_2035_991" x="25.2949" y="32.8628" width="185.195" height="140.532" filterUnits="userSpaceOnUse" color-interpolation-filters="sRGB">
<feFlood flood-opacity="0" result="BackgroundImageFix"/>
<feBlend mode="normal" in="SourceGraphic" in2="BackgroundImageFix" result="shape"/>
<feGaussianBlur stdDeviation="20" result="effect1_foregroundBlur_2035_991"/>
</filter>
<linearGradient id="paint0_linear_2035_991" x1="70.1893" y1="86.8918" x2="147.556" y2="99.806" gradientUnits="userSpaceOnUse">
<stop stop-color="#9320EB"/>
<stop offset="1" stop-color="#9320EB"/>
</linearGradient>
<linearGradient id="paint1_linear_2035_991" x1="206.394" y1="90.8954" x2="129.855" y2="70.387" gradientUnits="userSpaceOnUse">
<stop stop-color="#4956FF"/>
<stop offset="1" stop-color="#9320EB"/>
</linearGradient>
<linearGradient id="paint2_linear_2035_991" x1="162.625" y1="49.3335" x2="162.625" y2="73.3752" gradientUnits="userSpaceOnUse">
<stop stop-color="#8E20E2"/>
<stop offset="1" stop-color="#492592"/>
</linearGradient>
<linearGradient id="paint3_linear_2035_991" x1="170.347" y1="82.6973" x2="170.347" y2="105.99" gradientUnits="userSpaceOnUse">
<stop stop-color="#8E20E2"/>
<stop offset="1" stop-color="#492592"/>
</linearGradient>
<linearGradient id="paint4_linear_2035_991" x1="117.271" y1="49.3335" x2="117.271" y2="73.3752" gradientUnits="userSpaceOnUse">
<stop stop-color="#8E20E2"/>
<stop offset="1" stop-color="#492592"/>
</linearGradient>
<linearGradient id="paint5_linear_2035_991" x1="109.115" y1="82.6973" x2="109.115" y2="106.033" gradientUnits="userSpaceOnUse">
<stop stop-color="#8E20E2"/>
<stop offset="1" stop-color="#492592"/>
</linearGradient>
<linearGradient id="paint6_linear_2035_991" x1="139.978" y1="78.5" x2="139.978" y2="107.125" gradientUnits="userSpaceOnUse">
<stop stop-color="#8E20E2"/>
<stop offset="1" stop-color="#492592"/>
</linearGradient>
<linearGradient id="paint7_linear_2035_991" x1="139.999" y1="112.157" x2="139.999" y2="134.636" gradientUnits="userSpaceOnUse">
<stop stop-color="#8E20E2"/>
<stop offset="1" stop-color="#492592"/>
</linearGradient>
</defs>
</svg>
